<?xml version="1.0" encoding="UTF-8"?>
<!DOCTYPE svg PUBLIC "-//W3C//DTD SVG 1.0//EN" "http://www.w3.org/TR/2001/REC-SVG-20010904/DTD/svg10.dtd">
<!-- Creator: CorelDRAW 2021 (64-Bit) -->
<svg xmlns="http://www.w3.org/2000/svg" xml:space="preserve" width="117px" height="52px" version="1.0" style="shape-rendering:geometricPrecision; text-rendering:geometricPrecision; image-rendering:optimizeQuality; fill-rule:evenodd; clip-rule:evenodd"
viewBox="0 0 73.68 32.79"
 xmlns:xlink="http://www.w3.org/1999/xlink"
 xmlns:xodm="http://www.corel.com/coreldraw/odm/2003">
 <defs>
  <style type="text/css">
   <![CDATA[
    .fil3 {fill:black}
    .fil1 {fill:#C44204}
    .fil2 {fill:#C44204}
    .fil4 {fill:white}
    .fil0 {fill:#C44204;fill-rule:nonzero}
   ]]>
  </style>
 </defs>
 <g id="Layer_x0020_1">
  <metadata id="CorelCorpID_0Corel-Layer"/>
  <g id="_2876367009968">
   <path class="fil0" d="M55.92 26.5l0 -9.47 3.06 0 0 1.92c0.44,-0.77 0.95,-1.33 1.53,-1.69 0.58,-0.36 1.28,-0.54 2.09,-0.54 0.61,0 1.16,0.1 1.63,0.3 0.48,0.2 0.87,0.48 1.17,0.85 0.25,0.32 0.43,0.71 0.53,1.16 0.11,0.46 0.16,1.14 0.16,2.05l0 5.42 -3.34 0 0 -5.07c0,-0.76 -0.12,-1.31 -0.37,-1.66 -0.25,-0.34 -0.64,-0.51 -1.18,-0.51 -0.7,0 -1.2,0.26 -1.52,0.77 -0.32,0.51 -0.48,1.34 -0.48,2.49l0 3.98 -3.28 0zm13.05 0l0 -7.11 -1.42 0 0 -2.36 1.42 0 0 -2.82 3.29 0 0 2.82 1.42 0 0 2.36 -1.42 0 0 7.11 -3.29 0z"/>
   <g>
    <path class="fil1" d="M55.32 6.65c-0.73,-2.9 3.55,-3.75 4.16,-1.1 0.67,2.88 -3.5,3.71 -4.16,1.1zm-5.61 -0.2c-0.47,-2.95 3.83,-3.39 4.23,-0.7 0.19,1.24 -0.69,2.29 -1.73,2.45 -1.34,0.22 -2.34,-0.67 -2.5,-1.75zm-1.2 0.2c-0.69,2.7 -4.92,1.64 -4.13,-1.16 0.28,-0.98 1.38,-1.83 2.67,-1.47 0.98,0.28 1.8,1.32 1.46,2.63zm-0.78 9.28c1.75,-7.16 11.36,-1.92 14.99,-5.64 0.95,-0.98 1.57,-1.72 1.85,-3.26 0.5,-2.78 -1.03,-5.55 -3.64,-6.52 -1.44,-0.54 -3.15,-0.39 -4.82,-0.39 -3.42,0 -6.83,0 -10.25,0 -1.81,-0.01 -2.78,0.11 -4.11,0.99 -3.75,2.49 -3.29,7.93 0.43,9.94 2.04,1.1 3.2,1.2 4.57,3.12 0.54,0.76 0.57,1.19 0.93,1.69 0.01,0.02 0.03,0.05 0.05,0.07z"/>
    <path class="fil1" d="M36.98 13.89c-0.03,-1.86 0,-3.74 -0.01,-5.6 -0.01,-2.23 -1.62,-2.92 -2.87,-2.41 -1.61,0.65 -1.34,2.31 -1.35,4.26l-0.02 11.18c0.01,1.49 -0.31,3.98 0.55,4.99 1.05,1.24 2.89,0.87 3.52,-0.51 0.36,-0.76 0.17,-4.2 0.19,-5.3 0.04,-3.15 3.48,-3.49 4.57,-1.65 1.13,1.92 -0.4,5.54 0.98,7.43 0.98,1.34 2.82,0.78 3.44,-0.53 0.41,-0.88 0.24,-4.14 0.24,-5.35 0,-2.12 -0.26,-2.82 -1.27,-4.22 -0.63,-0.87 -1.94,-1.89 -3.21,-2.33 -2.45,-0.85 -3.59,-0.05 -4.76,0.04z"/>
    <path class="fil2" d="M49.38 25.01c0.14,2.47 3.57,2.72 4.15,0.49 0.2,-0.79 0.13,-6.43 0.07,-7.56 -0.14,-2.65 -3.6,-2.77 -4.15,-0.52 -0.19,0.78 -0.14,6.47 -0.07,7.59z"/>
   </g>
   <path class="fil3" d="M12.79 32.79c0.68,-0.44 0.57,0.16 0.57,-2.16l0.01 -23.75 -2.67 1.44 -0.03 7.17 -2.66 0.03 0 -5.54 -2.64 1.41 -0.05 10.72 2.68 1.59 0.03 -5.52 2.57 0 0.08 10.06 -7.99 -4.53 0 -13.85 11.96 -6.89 12.01 6.89 0.01 13.86c-2.29,1.64 -7.97,4.29 -10.61,6.2 -0.36,3.65 -0.01,2.59 0.52,2.87 0.31,-0.52 5.37,-3.21 6.38,-3.83 1.31,-0.81 5.58,-3.03 6.42,-3.77l0.01 -16.92c-2.11,-0.85 -13.97,-8.27 -14.69,-8.27 -0.39,0 -13.33,7.47 -14.7,8.37l0.04 16.82c1.8,1.62 12.17,6.65 12.75,7.6z"/>
   <path class="fil4" d="M7.16 4.68l0.21 0.24c0.03,0.04 0.07,0.08 0.1,0.12l0.11 0.12 -0.13 0.08c-0.08,0.05 -0.08,0.02 -0.03,0.1 0.04,0.07 0.02,0.05 0.1,0.07 0.29,0.06 0.63,0 0.9,-0.17 0.07,-0.04 0.13,-0.07 0.19,-0.11 0.01,0.03 0.04,0.21 0.05,0.26 0.01,0.05 0.01,0.09 0.02,0.14 0.01,0.02 0.01,0.04 0.01,0.06 0.01,0.02 0.01,0.05 0.02,0.07 0.02,-0.01 0.04,-0.03 0.06,-0.04 0.02,-0.01 0.05,-0.03 0.07,-0.04 0.04,-0.02 0.19,-0.1 0.2,-0.13l0.03 -0.06c0.01,-0.03 0.02,-0.04 0.03,-0.06 0.01,-0.03 0.02,-0.04 0.03,-0.06l0.31 -0.59c0.01,-0.03 0.01,-0.04 0.03,-0.06 0.01,-0.03 0.02,-0.03 0.05,-0.05 0.1,-0.06 0.19,-0.12 0.28,-0.17 0.12,-0.07 0.26,-0.17 0.31,-0.3 0.02,-0.06 0.02,-0.1 0.01,-0.14l-0.02 -0.04c-0.06,-0.12 -0.27,-0.12 -0.47,-0.01 -0.23,0.13 -0.49,0.3 -0.72,0.44 -0.1,0.06 -0.66,0.41 -0.72,0.44 -0.03,-0.01 -0.1,-0.03 -0.13,-0.05 -0.12,-0.05 -0.32,-0.11 -0.43,-0.15l-0.19 -0.07c-0.03,-0.01 -0.24,0.14 -0.28,0.16z"/>
   <path class="fil4" d="M27.44 20.35l0.31 0.05c0.05,0.01 0.11,0.01 0.16,0.02l0.16 0.03 0 -0.15c0,-0.1 -0.02,-0.08 0.07,-0.08 0.08,0 0.05,-0.01 0.11,0.05 0.2,0.21 0.33,0.54 0.33,0.86 0,0.07 0.01,0.15 0,0.22 0.04,-0.01 0.21,-0.08 0.26,-0.1 0.04,-0.02 0.08,-0.04 0.12,-0.05 0.03,-0.01 0.05,-0.02 0.06,-0.03 0.02,-0.01 0.05,-0.02 0.07,-0.02 0,0.02 0,0.05 0,0.07 0,0.03 0,0.06 0,0.08 0,0.05 0.01,0.21 -0.01,0.24l-0.03 0.06c-0.02,0.02 -0.02,0.04 -0.04,0.06 -0.01,0.02 -0.02,0.03 -0.03,0.06l-0.34 0.57c-0.01,0.02 -0.02,0.03 -0.04,0.05 -0.01,0.03 -0.01,0.03 -0.01,0.08 0.01,0.1 0,0.22 0.01,0.32 0,0.14 -0.01,0.32 -0.1,0.42 -0.04,0.05 -0.07,0.07 -0.11,0.08l-0.04 0.01c-0.13,0.01 -0.25,-0.17 -0.26,-0.4 -0.01,-0.26 0,-0.57 -0.01,-0.84 0,-0.12 0,-0.77 -0.01,-0.85 -0.02,-0.01 -0.08,-0.06 -0.1,-0.08 -0.1,-0.07 -0.27,-0.21 -0.36,-0.28l-0.16 -0.13c-0.02,-0.02 -0.01,-0.27 -0.01,-0.32z"/>
   <path class="fil1" d="M16 26.74c1.74,-0.41 6.44,-3.51 8.04,-4.6l0 -6.78c-2.01,0 -5.03,-0.9 -4.27,2.13 0.24,0.97 0.41,0.85 1.59,0.85l0 2.44c-1.05,0.36 -1.41,0.91 -2.68,1.09l0 -10.03c1.32,0.11 4.13,2.05 5.36,2.71l0 -0.24c0,-5.05 -0.26,-2.53 -6.22,-6.49 -1.15,-0.76 -1.71,-1.41 -1.82,0.21 0,6.24 0,12.48 0,18.71z"/>
  </g>
 </g>
</svg>
